<?xml version="1.0" encoding="utf-8"?>
<!-- Generator: Adobe Illustrator 24.0.0, SVG Export Plug-In . SVG Version: 6.00 Build 0)  -->
<svg version="1.1" id="Layer_1" xmlns="http://www.w3.org/2000/svg" xmlns:xlink="http://www.w3.org/1999/xlink" x="0px" y="0px"
	 viewBox="0 0 264.1 186.5" style="enable-background:new 0 0 264.1 186.5;" xml:space="preserve">
<style type="text/css">
	.st0{fill:#20516A;}
	.st1{fill:#FFFFFF;}
	.st2{fill:#1D1D1B;}
	.st3{fill:#ED7622;}
</style>
<g>
	<g>
		<path class="st0" d="M0,122.7h4.5L30,160.4l25.6-37.7h4.5v63.7h-4.7v-55.4l-25.2,36.7h-0.4L4.6,131.1v55.4H0L0,122.7L0,122.7z"/>
		<path class="st0" d="M68.4,122.6h45.3v4.4H73.1v25h36.5v4.4H73.1V182h41.1v4.4H68.4V122.6z"/>
		<path class="st0" d="M123.3,122.6h21.2c20,0,33.9,13.8,33.9,31.7v0.2c0,17.9-13.8,31.9-33.9,31.9h-21.2V122.6z M128.1,127v55h16.5
			c17.8,0,29-12.1,29-27.3v-0.2c0-15.1-11.2-27.5-29-27.5H128.1z"/>
		<path class="st0" d="M187.4,122.6h4.7v63.7h-4.7V122.6z"/>
		<path class="st0" d="M229.9,122.2h4.5l29.7,64.2H259l-8.1-17.8h-37.6l-8.1,17.8h-4.9L229.9,122.2z M248.9,164.2l-16.8-36.9
			l-16.8,36.9H248.9z"/>
	</g>
	<rect x="200.1" y="88.5" class="st1" width="6.1" height="6.1"/>
	<path class="st2" d="M242.5,15.7v2.6h3.9C245.2,17.4,243.9,16.5,242.5,15.7z"/>
	<g>
		<rect x="61.5" y="100.7" class="st3" width="6.1" height="6.1"/>
		<rect x="0.2" y="0.2" class="st3" width="12.1" height="6.1"/>
		<rect x="36.6" y="6.2" class="st3" width="6.1" height="6.1"/>
		<rect x="42.7" y="0.2" class="st3" width="6.1" height="6.1"/>
		<rect x="30.6" y="0.2" class="st3" width="6.1" height="6.1"/>
		<rect x="12.4" y="6.2" class="st3" width="6.1" height="6.1"/>
		<polygon class="st3" points="60.9,6.2 66.9,6.2 66.9,0.2 60.9,0.2 60.9,6.2 54.8,6.2 54.8,12.3 60.9,12.3 		"/>
		<path class="st3" d="M19.6,83.4V64.8h41.7V47.5H19.6V29.6h47.4V18.3h-6.1v-6.1H42.7v6.1h6.1v6.1h-6.1v-6.1h-6.1v-6.1H24.5v6.1
			h-6.1v-6.1h-6.1v6.1H6.3v-6.1H0.2v6.1h6.1v6.1H0.2v58.1h6.1v6.1H0.2v6.1h6.1v6H0.1v6.1h12.3v-6l0,0v-6h6.1v6h6.1v-6h6.1v6h12.6v-6
			h6.1v6l0,0v6.1h6.1v-6.1h6.2v-6.1h6.1V83.4L19.6,83.4L19.6,83.4z M12.4,94.7H6.3v-6.1h6.1V94.7z M24.5,94.7h-6.1v-6.1h6.1V94.7z
			 M43.2,94.7h-6.1v-6.1h6.1V94.7z"/>
	</g>
	<g>
		<rect x="142.8" y="0" class="st3" width="6.1" height="6.1"/>
		<rect x="84.4" y="100.5" class="st3" width="6.1" height="6.1"/>
		<rect x="90.4" y="100.5" class="st3" width="6.1" height="6.1"/>
		<rect x="145.4" y="100.5" class="st3" width="6.1" height="6.1"/>
		<rect x="151.5" y="94.5" class="st3" width="6.1" height="6.1"/>
		<path class="st3" d="M151.5,88.4L151.5,88.4L151.5,88.4v-6h6.1V47.9h-38.1v16.7h19.4v12.5c-4.9,3.5-11.2,5.3-18.2,5.3
			c-15.5,0-26.6-11.8-26.6-27.8v-0.2c0-14.9,11.1-27.3,25.2-27.3c10.1,0,16.2,3.3,22.9,8.9l9.6-11.6h3.2v-6.1H149l0,0h-0.1v0h-6
			v-4.6l0,0v-1.4h-3.6c0,0,0,0,0,0h-2.4V6.1h-6.1v3.9h0v2.2h-6.1V9.3h0V6h-12.3v6.1l0,0v0h-6v-6h-6.1v6l0,0v-6h-6.1v6.1h6v6h-6v0
			h-6.1v-6.1h-6.1v6.1h6.1v3.3l0,0v2.8l0,0v0l0,0v6h-7.3c-4.4,7-6.9,15.4-6.9,24.3v0.2c0,11.7,3.9,22,10.6,29.8v-2.2h6.1v6h-6.1v6.1
			h6.1v-6h6v0h6v6h0v0h-6v6.1h6v6.2h6.1v-8h0v-4.2h6.1v0l0,0v6.1h6.1l0,0h6.1v-1.1c0,0,0,0,0,0v-5h6.1v6h6.1l0-6h5l0,0h1.1l0,0h6.1
			v-4l0,0v4h6.1v-6.1L151.5,88.4L151.5,88.4z M136.7,18.2h6.1v6.1h-6.1V18.2z M130.7,12.1L130.7,12.1L130.7,12.1h6.1v6.1h-6.1V12.1z
			 M112.3,12.2h6.1v6.1h-6.1V12.2z M120.9,94.5h-6.1v-6h6.1V94.5z M139.3,94.4h-6.1v-6h6.1V94.4z M145.4,88.4h-6.1v-6.1h6.1V88.4z"
			/>
	</g>
	<g>
		<rect x="212.2" y="0.1" class="st3" width="6.1" height="6.1"/>
		<rect x="242.5" y="101.1" class="st3" width="6.1" height="6.1"/>
		<path class="st3" d="M254.6,26.5v-8.1h-6.1v1.7l0,0v4.3h-6.1v-6h6.1v-6.1h-6.1v6.1h-6v-5.7h0V6.2h6V0.1h-6.1v6h-6v4.5c0,0,0,0,0,0
			v1.6h-6v-6h-6.1v2.7l0,0v3.3l0,0v0.1h6v6h-6.1v-5.8l-12.1,0v-2.4h0V6.4h-6.1v5.4c0,0,0,0,0,0v6.7H194v-4c0,0,0,0,0,0V6.4h-6.1v6.1
			h-6v6v0V24c-7.4,8.1-11.8,18.9-11.8,30.7v0.2c0,8.1,2.1,15.8,5.8,22.4v5.6h6.1v0h0l0,6.1v0v6h6v6.2h6.1V89.3l0,0V89h6.1v6.2h0v6.1
			h6.1v-6.1h0V95h6.1v0h0v6.1h6.1v-0.8c0,0,0,0,0,0v0.8h6.1v-1.3l0,0V95h6v12.1h6.1v-6h6V95h-2.9c0,0,0,0,0,0h-3.2v-6.1h6.1v0l0,0
			V95h6.1v-6.1h0c0.1-0.1,0.1-0.1,0.2-0.2v0.1h6.1v-6.6c5.9-7.7,9.3-17.3,9.3-27.7v-0.2C264.1,43.8,260.7,34.2,254.6,26.5z
			 M187.9,30.7h-6.1v-6.1h6.1V30.7z M188,18.6L188,18.6L188,18.6l6,0v6.1h-6V18.6z M194.1,89h-6v-6H188v-0.1h6.1V89z M224.3,95h-6.1
			V89h6.1V95z M217.3,82.4c-15.7,0-26.8-12.6-26.8-27.8v-0.2c0-15.2,10.9-27.5,26.5-27.5c15.7,0,26.8,12.6,26.8,27.8v0.2
			C243.8,70.1,232.9,82.4,217.3,82.4z M248.6,88.9h-6.1v-6.1h6.1V88.9z"/>
		<rect x="182" y="101.2" class="st3" width="6.1" height="6.1"/>
	</g>
</g>
</svg>
