<svg xmlns="http://www.w3.org/2000/svg" xmlns:xlink="http://www.w3.org/1999/xlink" viewBox="0 0 697.64 289.31"><defs><clipPath id="a" transform="translate(-72 -153.97)"><rect x="72" y="153.97" width="697.64" height="289.31" fill="none"/></clipPath><clipPath id="b" transform="translate(-72 -153.97)"><path d="M678.88,347.47a1.85,1.85,0,1,0,1-.31,1.85,1.85,0,0,0-1,.31m16-13a1.85,1.85,0,1,0,1.31-.54,1.85,1.85,0,0,0-1.31.54m-14.23-1a2.34,2.34,0,1,0,1.26-.37,2.32,2.32,0,0,0-1.26.37M666.38,330a3.63,3.63,0,1,0,2-.57,3.57,3.57,0,0,0-2,.57m39.77-8.82a1.86,1.86,0,1,0,2.59-.42,1.83,1.83,0,0,0-1.08-.35,1.86,1.86,0,0,0-1.51.77m-12.28-.85a2.33,2.33,0,1,0,3.26,3.32,2.31,2.31,0,0,0,0-3.28,2.27,2.27,0,0,0-1.65-.7,2.32,2.32,0,0,0-1.63.66m-14.59-.63a3.63,3.63,0,1,0,2.53-1,3.63,3.63,0,0,0-2.53,1m-13.16-4.32a3.8,3.8,0,1,0,2.07-.62,3.76,3.76,0,0,0-2.07.62M654,310.13a4.47,4.47,0,1,0,2.41-.71,4.47,4.47,0,0,0-2.41.71m36.15-3.47a3.63,3.63,0,1,0,5-1,3.62,3.62,0,0,0-5,1m-14.42-.8a3.8,3.8,0,1,0,2.65-1.07,3.82,3.82,0,0,0-2.65,1.07m28.17-.37a2.34,2.34,0,1,0,1.93-1,2.33,2.33,0,0,0-1.93,1m12.77-2.76a1.86,1.86,0,1,0,2.45-.94,1.81,1.81,0,0,0-.75-.16,1.84,1.84,0,0,0-1.7,1.1m-53.68.06a4.48,4.48,0,1,0,3.15-1.3,4.48,4.48,0,0,0-3.15,1.3m-13.08-6.6a5.15,5.15,0,1,0,3.2-1.11,5.15,5.15,0,0,0-3.2,1.11m20.22-1.92a4.49,4.49,0,1,0,3.7-1.95,4.49,4.49,0,0,0-3.7,1.95m13.62-.44a3.82,3.82,0,1,0,5.3-1,3.75,3.75,0,0,0-2.14-.66,3.81,3.81,0,0,0-3.16,1.67m13.75-.81a3.63,3.63,0,1,0,4.76-1.91,3.57,3.57,0,0,0-1.42-.29,3.63,3.63,0,0,0-3.34,2.2m-61.68-6.55a6,6,0,1,0,1.84-.29,5.89,5.89,0,0,0-1.84.29m75.51,1.06a2.31,2.31,0,1,0,2.15-1.44,2.32,2.32,0,0,0-2.15,1.44m-51.74-2a5.15,5.15,0,1,0,4.31-2.33,5.16,5.16,0,0,0-4.31,2.33m16.37-2a4.48,4.48,0,1,0,5.86-2.43,4.31,4.31,0,0,0-1.71-.34,4.47,4.47,0,0,0-4.15,2.77m12.78-1.82a3.82,3.82,0,1,0,5-2,3.71,3.71,0,0,0-1.52-.32,3.8,3.8,0,0,0-3.5,2.3m34.8-1.07a1.86,1.86,0,1,0,2.19-1.47,1.47,1.47,0,0,0-.36,0,1.88,1.88,0,0,0-1.83,1.51m-78.45-2.09a6,6,0,1,0,4-1.54,6,6,0,0,0-4,1.54m57.19-.9a3.63,3.63,0,1,0,4.3-2.81,4,4,0,0,0-.76-.08,3.63,3.63,0,0,0-3.54,2.89m-37.61-2.86a5.16,5.16,0,1,0,4.9-3.55,5.15,5.15,0,0,0-4.9,3.55m14.52-1.68a4.48,4.48,0,1,0,5.3-3.48,4.76,4.76,0,0,0-.91-.09,4.5,4.5,0,0,0-4.39,3.57m35.62-4a2.28,2.28,0,1,0,2.27-1.89,2.31,2.31,0,0,0-2.27,1.89m-23.42-.07a3.82,3.82,0,1,0,4.57-2.87,3.55,3.55,0,0,0-.86-.1,3.82,3.82,0,0,0-3.71,3m-41.23-.75a6,6,0,1,0,5.43-3.45,6,6,0,0,0-5.43,3.45m77.09-10.46a1.87,1.87,0,0,0-1.85,1.87,1.86,1.86,0,1,0,1.87-1.87h0m-42.33-.57a4.49,4.49,0,1,0,4.49,4.52,4.49,4.49,0,0,0-4.49-4.52h0m-18.1,4.67a5.15,5.15,0,1,0,5.26-5h-.12a5.14,5.14,0,0,0-5.14,5m40.75-5.35a3.63,3.63,0,1,0,3.66,3.6,3.61,3.61,0,0,0-3.66-3.6h0M695.26,250a3.82,3.82,0,1,0,3.82,3.85,3.82,3.82,0,0,0-3.82-3.85h0m-38.59,0a6,6,0,1,0,.06,0h-.06m60-2.82a2.33,2.33,0,1,0,2.38,2.28,2.33,2.33,0,0,0-2.38-2.28h0M682.3,244a4.46,4.46,0,1,0,1-.12,4.57,4.57,0,0,0-1,.12m-14.73-3a5.15,5.15,0,1,0,1.59-.25,5.13,5.13,0,0,0-1.59.25M705,239.71a3.67,3.67,0,1,0,.75-.07,3.81,3.81,0,0,0-.75.07m19.58-2.48a1.86,1.86,0,0,0,.77,3.64,1.87,1.87,0,0,0,1.43-2.21,1.85,1.85,0,0,0-1.81-1.47,1.72,1.72,0,0,0-.39,0m-75.73-1a6,6,0,1,0,2.49-.55,6,6,0,0,0-2.49.55m42.7-1a3.84,3.84,0,1,0,.75-.07,3.83,3.83,0,0,0-.75.07m-13.44-3.06a4.47,4.47,0,1,0,1.78-.37,4.47,4.47,0,0,0-1.78.37m34.67-1.58a2.36,2.36,0,1,0,.47,0,2.49,2.49,0,0,0-.47,0m-54.83-4a5.14,5.14,0,1,0,3.15-1.08,5.14,5.14,0,0,0-3.15,1.08m-22.09.61a6,6,0,1,0,4.58-2.13,6,6,0,0,0-4.58,2.13m63.69-2.64a3.63,3.63,0,1,0,1.39-.28,3.64,3.64,0,0,0-1.39.28m-14.12-2a3.82,3.82,0,1,0,2.88,7.07,3.82,3.82,0,0,0-1.44-7.35,3.84,3.84,0,0,0-1.44.28m-13.32-.06a4.47,4.47,0,1,0,2.43-.73,4.48,4.48,0,0,0-2.43.73m46.37-3.66a1.86,1.86,0,1,0,1.42,3.44,1.86,1.86,0,0,0-.71-3.58,2,2,0,0,0-.71.14m-12.6-3.94a2.34,2.34,0,1,0,.86-.16,2.33,2.33,0,0,0-.86.16m-60.82,2a5.14,5.14,0,1,0,4.28-2.29,5.14,5.14,0,0,0-4.28,2.29m18.3-3.48a4.48,4.48,0,1,0,6.34,0,4.43,4.43,0,0,0-3.16-1.31,4.48,4.48,0,0,0-3.18,1.32m28.61-1.86a3.64,3.64,0,1,0,2-.57,3.57,3.57,0,0,0-2,.57m-15.26-.69a3.81,3.81,0,1,0,2.09-.63,3.73,3.73,0,0,0-2.09.63m-23.11-4.41a4.49,4.49,0,1,0,3.72-2,4.48,4.48,0,0,0-3.72,2m55-5.39a1.86,1.86,0,1,0,1-.31,1.86,1.86,0,0,0-1,.31m-42.77,0a3.81,3.81,0,1,0,2.68-1.1,3.82,3.82,0,0,0-2.68,1.1m28.84-2.38a2.31,2.31,0,1,0,1.28-.39,2.29,2.29,0,0,0-1.28.39M680,198.06a3.62,3.62,0,1,0,2.56-1.06,3.62,3.62,0,0,0-2.56,1.06m-13.6-10.23a3.63,3.63,0,1,0,5-1,3.57,3.57,0,0,0-2-.61,3.61,3.61,0,0,0-3,1.6m29.43-1.78a1.86,1.86,0,1,0,1.3-.53,1.86,1.86,0,0,0-1.3.53m-14.29.12a2.32,2.32,0,1,0,3.28,0,2.31,2.31,0,0,0-3.28,0m-1.33-12.79a1.87,1.87,0,0,0,.47,2.59,1.86,1.86,0,1,0,1.06-3.39,1.88,1.88,0,0,0-1.53.8" fill="none"/></clipPath><linearGradient id="c" x1="1.73" y1="596.61" x2="2.73" y2="596.61" gradientTransform="matrix(97.18, 0, 0, -97.18, 391.75, 58083.53)" gradientUnits="userSpaceOnUse"><stop offset="0" stop-color="#ff4000"/><stop offset="1" stop-color="#fff"/></linearGradient></defs><title>LOGO_ERC-FLAG_EU</title><rect y="29.1" width="340.62" height="227.59" fill="#0f1a7f"/><polygon points="236.44 168.18 239.28 176.92 248.47 176.92 241.03 182.32 243.88 191.06 236.44 185.66 229.01 191.06 231.85 182.32 224.42 176.92 233.6 176.92 236.44 168.18" fill="#ffcc13"/><polygon points="104.95 168.18 107.78 176.92 116.97 176.92 109.54 182.32 112.38 191.06 104.95 185.66 97.51 191.06 100.35 182.32 92.92 176.92 102.11 176.92 104.95 168.18" fill="#ffcc13"/><polygon points="104.95 92.31 107.78 101.05 116.97 101.05 109.54 106.45 112.38 115.19 104.95 109.79 97.51 115.19 100.35 106.45 92.92 101.05 102.11 101.05 104.95 92.31" fill="#ffcc13"/><polygon points="236.44 92.31 239.28 101.05 248.47 101.05 241.03 106.45 243.88 115.19 236.44 109.79 229.01 115.19 231.85 106.45 224.42 101.05 233.6 101.05 236.44 92.31" fill="#ffcc13"/><polygon points="132.76 196 135.6 204.73 144.79 204.73 137.36 210.13 140.19 218.87 132.76 213.47 125.33 218.87 128.17 210.13 120.74 204.73 129.93 204.73 132.76 196" fill="#ffcc13"/><polygon points="208.63 196 211.46 204.73 220.65 204.73 213.22 210.13 216.06 218.87 208.63 213.47 201.19 218.87 204.03 210.13 196.6 204.73 205.79 204.73 208.63 196" fill="#ffcc13"/><polygon points="132.76 64.5 135.6 73.24 144.79 73.24 137.36 78.64 140.19 87.37 132.76 81.97 125.33 87.37 128.17 78.64 120.74 73.24 129.93 73.24 132.76 64.5" fill="#ffcc13"/><polygon points="208.63 64.5 211.46 73.24 220.65 73.24 213.22 78.64 216.06 87.37 208.63 81.97 201.19 87.37 204.03 78.64 196.6 73.24 205.79 73.24 208.63 64.5" fill="#ffcc13"/><polygon points="246.56 130.25 249.4 138.99 258.58 138.99 251.15 144.39 253.99 153.12 246.56 147.72 239.13 153.12 241.96 144.39 234.53 138.99 243.72 138.99 246.56 130.25" fill="#ffcc13"/><polygon points="94.83 130.25 97.67 138.99 106.85 138.99 99.42 144.39 102.26 153.12 94.83 147.72 87.4 153.12 90.23 144.39 82.8 138.99 91.99 138.99 94.83 130.25" fill="#ffcc13"/><polygon points="170.69 206.11 173.53 214.85 182.72 214.85 175.29 220.25 178.13 228.99 170.69 223.59 163.26 228.99 166.1 220.25 158.67 214.85 167.86 214.85 170.69 206.11" fill="#ffcc13"/><polygon points="170.69 54.38 173.53 63.12 182.72 63.12 175.29 68.52 178.13 77.26 170.69 71.86 163.26 77.26 166.1 68.52 158.67 63.12 167.86 63.12 170.69 54.38" fill="#ffcc13"/><g clip-path="url(#a)"><line x1="361.82" x2="361.82" y2="289.31" fill="none" stroke="#ff4000" stroke-width="1.35"/></g><g clip-path="url(#b)"><rect x="558.91" y="18.61" width="98.21" height="178.56" fill="url(#c)"/></g><g clip-path="url(#a)"><path d="M632.1,227.8a6,6,0,1,1-4.17-7.39,6,6,0,0,1,4.17,7.39" transform="translate(-72 -153.97)" fill="#ff4000"/><path d="M618.18,295.25a6,6,0,1,1,5.43,6.51,6,6,0,0,1-5.43-6.51" transform="translate(-72 -153.97)" fill="#ff4000"/><path d="M605.24,291.11a6,6,0,1,1,2.5,8.1,6,6,0,0,1-2.5-8.1" transform="translate(-72 -153.97)" fill="#ff4000"/><path d="M594.53,281.82a6,6,0,1,1-1,8.43,6,6,0,0,1,1-8.43" transform="translate(-72 -153.97)" fill="#ff4000"/><path d="M588.46,269.11a6,6,0,1,1-4.25,7.34,6,6,0,0,1,4.25-7.34" transform="translate(-72 -153.97)" fill="#ff4000"/><path d="M587.87,255.6a6,6,0,1,1-6.73,5.16,6,6,0,0,1,6.73-5.16" transform="translate(-72 -153.97)" fill="#ff4000"/><path d="M592.79,242.45a6,6,0,1,1-8.23,2.06,6,6,0,0,1,8.23-2.06" transform="translate(-72 -153.97)" fill="#ff4000"/><path d="M602.52,232.34a6,6,0,1,1-8.37-1.38,6,6,0,0,1,8.37,1.38" transform="translate(-72 -153.97)" fill="#ff4000"/><path d="M617.05,226.66a6,6,0,1,1-6.91-4.91,6,6,0,0,1,6.91,4.91" transform="translate(-72 -153.97)" fill="#ff4000"/><path d="M627.28,311.1a5.15,5.15,0,1,1-5.15-5.15,5.15,5.15,0,0,1,5.15,5.15" transform="translate(-72 -153.97)" fill="#ff4000"/><path d="M642.82,306.85a5.15,5.15,0,1,1-6.51-3.25,5.14,5.14,0,0,1,6.51,3.25" transform="translate(-72 -153.97)" fill="#ff4000"/><path d="M616.68,211.32a5.15,5.15,0,1,1,5,5.3,5.14,5.14,0,0,1-5-5.3" transform="translate(-72 -153.97)" fill="#ff4000"/><path d="M631.91,211.75a5.14,5.14,0,1,1,3.23,6.52,5.13,5.13,0,0,1-3.23-6.52" transform="translate(-72 -153.97)" fill="#ff4000"/><path d="M601.49,215.59a5.15,5.15,0,1,1,6.44,3.4,5.15,5.15,0,0,1-6.44-3.4" transform="translate(-72 -153.97)" fill="#ff4000"/><path d="M587.6,225.09a5.15,5.15,0,1,1,7.2,1,5.13,5.13,0,0,1-7.2-1" transform="translate(-72 -153.97)" fill="#ff4000"/><path d="M573,251.29a5.15,5.15,0,1,1,6.55-3.16,5.15,5.15,0,0,1-6.55,3.16" transform="translate(-72 -153.97)" fill="#ff4000"/><path d="M578,236.82a5.15,5.15,0,1,1,7.16-1.32,5.15,5.15,0,0,1-7.16,1.32" transform="translate(-72 -153.97)" fill="#ff4000"/><path d="M572.15,266.75a5.15,5.15,0,1,1,5.34-5,5.15,5.15,0,0,1-5.34,5" transform="translate(-72 -153.97)" fill="#ff4000"/><path d="M576.22,282.05a5.15,5.15,0,1,1,3.49-6.39,5.13,5.13,0,0,1-3.49,6.39" transform="translate(-72 -153.97)" fill="#ff4000"/><path d="M585.13,295.3a5.15,5.15,0,1,1,1.11-7.2,5.16,5.16,0,0,1-1.11,7.2" transform="translate(-72 -153.97)" fill="#ff4000"/><path d="M610.11,310.22a5.15,5.15,0,1,1-3.06-6.6,5.15,5.15,0,0,1,3.06,6.6" transform="translate(-72 -153.97)" fill="#ff4000"/><path d="M597.11,304.94a5.15,5.15,0,1,1-1.22-7.17,5.16,5.16,0,0,1,1.22,7.17" transform="translate(-72 -153.97)" fill="#ff4000"/><path d="M626.62,198.17a4.49,4.49,0,1,1-4.49-4.48,4.49,4.49,0,0,1,4.49,4.48" transform="translate(-72 -153.97)" fill="#ff4000"/><path d="M638.85,200.3a4.48,4.48,0,1,1-3.52-5.27,4.49,4.49,0,0,1,3.52,5.27" transform="translate(-72 -153.97)" fill="#ff4000"/><path d="M649.85,204.5a4.48,4.48,0,1,1-2.48-5.84,4.49,4.49,0,0,1,2.48,5.84" transform="translate(-72 -153.97)" fill="#ff4000"/><path d="M559,256.93a4.49,4.49,0,1,1-4.45,4.52,4.49,4.49,0,0,1,4.45-4.52" transform="translate(-72 -153.97)" fill="#ff4000"/><path d="M561,244.69a4.48,4.48,0,1,1-5.24,3.55,4.49,4.49,0,0,1,5.24-3.55" transform="translate(-72 -153.97)" fill="#ff4000"/><path d="M565.15,233.65a4.48,4.48,0,1,1-5.83,2.53,4.48,4.48,0,0,1,5.83-2.53" transform="translate(-72 -153.97)" fill="#ff4000"/><path d="M572.07,222.47a4.48,4.48,0,1,1-6.21,1.26,4.48,4.48,0,0,1,6.21-1.26" transform="translate(-72 -153.97)" fill="#ff4000"/><path d="M580.29,213.72a4.49,4.49,0,1,1-6.34.06,4.49,4.49,0,0,1,6.34-.06" transform="translate(-72 -153.97)" fill="#ff4000"/><path d="M590.49,206.37a4.48,4.48,0,1,1-6.21-1.27,4.48,4.48,0,0,1,6.21,1.27" transform="translate(-72 -153.97)" fill="#ff4000"/><path d="M600.89,201.63a4.48,4.48,0,1,1-5.92-2.3,4.49,4.49,0,0,1,5.92,2.3" transform="translate(-72 -153.97)" fill="#ff4000"/><path d="M613.12,198.82a4.48,4.48,0,1,1-5.41-3.31,4.48,4.48,0,0,1,5.41,3.31" transform="translate(-72 -153.97)" fill="#ff4000"/><path d="M617.76,324.08a4.49,4.49,0,1,1,4.51,4.45,4.48,4.48,0,0,1-4.51-4.45" transform="translate(-72 -153.97)" fill="#ff4000"/><path d="M605.51,322a4.49,4.49,0,1,1,3.55,5.25,4.49,4.49,0,0,1-3.55-5.25" transform="translate(-72 -153.97)" fill="#ff4000"/><path d="M594.48,317.93a4.48,4.48,0,1,1,2.52,5.81,4.47,4.47,0,0,1-2.52-5.81" transform="translate(-72 -153.97)" fill="#ff4000"/><path d="M583.29,311a4.49,4.49,0,1,1,1.27,6.21,4.49,4.49,0,0,1-1.27-6.21" transform="translate(-72 -153.97)" fill="#ff4000"/><path d="M574.56,302.77a4.48,4.48,0,1,1,.06,6.34,4.49,4.49,0,0,1-.06-6.34" transform="translate(-72 -153.97)" fill="#ff4000"/><path d="M567.21,292.57a4.48,4.48,0,1,1-1.27,6.2,4.48,4.48,0,0,1,1.27-6.2" transform="translate(-72 -153.97)" fill="#ff4000"/><path d="M562.47,282.17a4.48,4.48,0,1,1-2.29,5.91,4.49,4.49,0,0,1,2.29-5.91" transform="translate(-72 -153.97)" fill="#ff4000"/><path d="M559.67,269.93a4.48,4.48,0,1,1-3.31,5.4,4.48,4.48,0,0,1,3.31-5.4" transform="translate(-72 -153.97)" fill="#ff4000"/><path d="M642.15,320.91A4.48,4.48,0,1,1,648,323.3a4.5,4.5,0,0,1-5.88-2.39" transform="translate(-72 -153.97)" fill="#ff4000"/><path d="M629.88,323.54a4.48,4.48,0,1,1,5.35,3.39,4.47,4.47,0,0,1-5.35-3.39" transform="translate(-72 -153.97)" fill="#ff4000"/><path d="M617.65,187.54a3.82,3.82,0,1,1-3.82-3.82,3.82,3.82,0,0,1,3.82,3.82" transform="translate(-72 -153.97)" fill="#ff4000"/><path d="M634.73,188.61a3.82,3.82,0,0,1-7.43-1.76,3.82,3.82,0,1,1,7.43,1.76" transform="translate(-72 -153.97)" fill="#ff4000"/><path d="M648,192.32a3.82,3.82,0,1,1-1.92-5,3.82,3.82,0,0,1,1.92,5" transform="translate(-72 -153.97)" fill="#ff4000"/><path d="M659.78,198.08a3.82,3.82,0,1,1-1-5.31,3.83,3.83,0,0,1,1,5.31" transform="translate(-72 -153.97)" fill="#ff4000"/><path d="M653.07,327.75a3.82,3.82,0,1,1,5,2.1,3.81,3.81,0,0,1-5-2.1" transform="translate(-72 -153.97)" fill="#ff4000"/><path d="M639.74,332.53a3.82,3.82,0,1,1,4.49,3,3.84,3.84,0,0,1-4.49-3" transform="translate(-72 -153.97)" fill="#ff4000"/><path d="M626.05,334.66a3.82,3.82,0,1,1,3.84,3.8,3.83,3.83,0,0,1-3.84-3.8" transform="translate(-72 -153.97)" fill="#ff4000"/><path d="M609.67,333.81a3.82,3.82,0,1,1,2.9,4.55,3.83,3.83,0,0,1-2.9-4.55" transform="translate(-72 -153.97)" fill="#ff4000"/><path d="M597.66,330.78a3.82,3.82,0,1,1,2.1,5,3.81,3.81,0,0,1-2.1-5" transform="translate(-72 -153.97)" fill="#ff4000"/><path d="M581.93,323.17a3.82,3.82,0,1,1,.87,5.33,3.81,3.81,0,0,1-.87-5.33" transform="translate(-72 -153.97)" fill="#ff4000"/><path d="M571.82,315.4a3.82,3.82,0,1,1-.06,5.4,3.82,3.82,0,0,1,.06-5.4" transform="translate(-72 -153.97)" fill="#ff4000"/><path d="M562.27,304.75a3.82,3.82,0,1,1-1.1,5.29,3.83,3.83,0,0,1,1.1-5.29" transform="translate(-72 -153.97)" fill="#ff4000"/><path d="M555.48,293.54a3.82,3.82,0,1,1-2,5,3.8,3.8,0,0,1,2-5" transform="translate(-72 -153.97)" fill="#ff4000"/><path d="M550.93,281.81a3.82,3.82,0,1,1-2.85,4.6,3.83,3.83,0,0,1,2.85-4.6" transform="translate(-72 -153.97)" fill="#ff4000"/><path d="M548.12,266.05a3.82,3.82,0,1,1-3.77,3.87,3.81,3.81,0,0,1,3.77-3.87" transform="translate(-72 -153.97)" fill="#ff4000"/><path d="M548.71,250.65a3.82,3.82,0,1,1-4.5,3,3.83,3.83,0,0,1,4.5-3" transform="translate(-72 -153.97)" fill="#ff4000"/><path d="M552.24,236.37a3.82,3.82,0,1,1-5,2,3.83,3.83,0,0,1,5-2" transform="translate(-72 -153.97)" fill="#ff4000"/><path d="M558.64,222.9a3.82,3.82,0,1,1-5.31,1,3.82,3.82,0,0,1,5.31-1" transform="translate(-72 -153.97)" fill="#ff4000"/><path d="M567.91,210.68a3.82,3.82,0,1,1-5.39-.12,3.82,3.82,0,0,1,5.39.12" transform="translate(-72 -153.97)" fill="#ff4000"/><path d="M578.05,201.71a3.82,3.82,0,1,1-5.29-1.11,3.82,3.82,0,0,1,5.29,1.11" transform="translate(-72 -153.97)" fill="#ff4000"/><path d="M589.58,194.78a3.82,3.82,0,1,1-5-2.05,3.82,3.82,0,0,1,5,2.05" transform="translate(-72 -153.97)" fill="#ff4000"/><path d="M603.23,189.77a3.83,3.83,0,1,1-4.5-3,3.82,3.82,0,0,1,4.5,3" transform="translate(-72 -153.97)" fill="#ff4000"/><path d="M608.36,176.52a3.63,3.63,0,1,1-4.28-2.84,3.63,3.63,0,0,1,4.28,2.84" transform="translate(-72 -153.97)" fill="#ff4000"/><path d="M625.85,175.53a3.63,3.63,0,1,1-3.61-3.66,3.62,3.62,0,0,1,3.61,3.66" transform="translate(-72 -153.97)" fill="#ff4000"/><path d="M645.71,178.79a3.63,3.63,0,1,1-2.66-4.39,3.64,3.64,0,0,1,2.66,4.39" transform="translate(-72 -153.97)" fill="#ff4000"/><path d="M659.26,184a3.63,3.63,0,1,1-1.88-4.78,3.63,3.63,0,0,1,1.88,4.78" transform="translate(-72 -153.97)" fill="#ff4000"/><path d="M650.72,341.82a3.63,3.63,0,1,1,4.72,2,3.63,3.63,0,0,1-4.72-2" transform="translate(-72 -153.97)" fill="#ff4000"/><path d="M635.13,345.77a3.63,3.63,0,1,1,4.26,2.86,3.63,3.63,0,0,1-4.26-2.86" transform="translate(-72 -153.97)" fill="#ff4000"/><path d="M616.86,346.64a3.63,3.63,0,1,1,3.55,3.7,3.63,3.63,0,0,1-3.55-3.7" transform="translate(-72 -153.97)" fill="#ff4000"/><path d="M600.51,344.06a3.63,3.63,0,1,1,2.78,4.31,3.64,3.64,0,0,1-2.78-4.31" transform="translate(-72 -153.97)" fill="#ff4000"/><path d="M584.39,338.11a3.63,3.63,0,1,1,1.86,4.78,3.63,3.63,0,0,1-1.86-4.78" transform="translate(-72 -153.97)" fill="#ff4000"/><path d="M568.05,327.69a3.62,3.62,0,1,1,.73,5.08,3.63,3.63,0,0,1-.73-5.08" transform="translate(-72 -153.97)" fill="#ff4000"/><path d="M558.23,318.38a3.63,3.63,0,1,1-.07,5.12,3.63,3.63,0,0,1,.07-5.12" transform="translate(-72 -153.97)" fill="#ff4000"/><path d="M548.52,305.22a3.63,3.63,0,1,1-1,5,3.63,3.63,0,0,1,1-5" transform="translate(-72 -153.97)" fill="#ff4000"/><path d="M542.27,292.57a3.63,3.63,0,1,1-1.86,4.78,3.63,3.63,0,0,1,1.86-4.78" transform="translate(-72 -153.97)" fill="#ff4000"/><path d="M537.63,276.19a3.63,3.63,0,1,1-2.77,4.32,3.64,3.64,0,0,1,2.77-4.32" transform="translate(-72 -153.97)" fill="#ff4000"/><path d="M536.33,258.42a3.63,3.63,0,1,1-3.59,3.65,3.63,3.63,0,0,1,3.59-3.65" transform="translate(-72 -153.97)" fill="#ff4000"/><path d="M538.67,241.08a3.63,3.63,0,1,1-4.27,2.85,3.64,3.64,0,0,1,4.27-2.85" transform="translate(-72 -153.97)" fill="#ff4000"/><path d="M544.06,225.47a3.63,3.63,0,1,1-4.74,2,3.62,3.62,0,0,1,4.74-2" transform="translate(-72 -153.97)" fill="#ff4000"/><path d="M552.47,211a3.63,3.63,0,1,1-5,1,3.64,3.64,0,0,1,5-1" transform="translate(-72 -153.97)" fill="#ff4000"/><path d="M565.2,196.94a3.63,3.63,0,1,1-5.13-.11,3.63,3.63,0,0,1,5.13.11" transform="translate(-72 -153.97)" fill="#ff4000"/><path d="M577.42,187.93a3.63,3.63,0,1,1-5-1,3.62,3.62,0,0,1,5,1" transform="translate(-72 -153.97)" fill="#ff4000"/><path d="M592.25,180.76a3.63,3.63,0,1,1-4.74-2,3.62,3.62,0,0,1,4.74,2" transform="translate(-72 -153.97)" fill="#ff4000"/><path d="M614.66,166.12a2.33,2.33,0,1,1-2.32-2.32,2.32,2.32,0,0,1,2.32,2.32" transform="translate(-72 -153.97)" fill="#ff4000"/><path d="M623.49,155.83a1.86,1.86,0,1,1-1.85-1.86,1.85,1.85,0,0,1,1.85,1.86" transform="translate(-72 -153.97)" fill="#ff4000"/><path d="M648.35,159.17a1.87,1.87,0,0,1-2.25,1.37,1.85,1.85,0,0,1-1.36-2.25,1.86,1.86,0,1,1,3.61.88" transform="translate(-72 -153.97)" fill="#ff4000"/><path d="M667.46,166.15a1.87,1.87,0,0,1-2.48.91,1.86,1.86,0,0,1,1.56-3.38,1.87,1.87,0,0,1,.92,2.47" transform="translate(-72 -153.97)" fill="#ff4000"/><path d="M658.8,359.76a1.86,1.86,0,1,1,3.46-1.35,1.86,1.86,0,0,1-3.46,1.35" transform="translate(-72 -153.97)" fill="#ff4000"/><path d="M639.57,364.93a1.86,1.86,0,1,1,2.16,1.49,1.86,1.86,0,0,1-2.16-1.49" transform="translate(-72 -153.97)" fill="#ff4000"/><path d="M617.7,366.32a1.86,1.86,0,1,1,1.81,1.91,1.85,1.85,0,0,1-1.81-1.91" transform="translate(-72 -153.97)" fill="#ff4000"/><path d="M595.7,363.08a1.86,1.86,0,1,1,1.37,2.25,1.87,1.87,0,0,1-1.37-2.25" transform="translate(-72 -153.97)" fill="#ff4000"/><path d="M576.24,356a1.86,1.86,0,1,1,.9,2.47,1.86,1.86,0,0,1-.9-2.47" transform="translate(-72 -153.97)" fill="#ff4000"/><path d="M557.47,344.34a1.86,1.86,0,1,1,.37,2.61,1.85,1.85,0,0,1-.37-2.61" transform="translate(-72 -153.97)" fill="#ff4000"/><path d="M543.79,331.65a1.86,1.86,0,1,1-.1,2.63,1.85,1.85,0,0,1,.1-2.63" transform="translate(-72 -153.97)" fill="#ff4000"/><path d="M532.82,317.14a1.86,1.86,0,1,1-.55,2.57,1.84,1.84,0,0,1,.55-2.57" transform="translate(-72 -153.97)" fill="#ff4000"/><path d="M525.21,302.66a1.86,1.86,0,1,1-.94,2.46,1.86,1.86,0,0,1,.94-2.46" transform="translate(-72 -153.97)" fill="#ff4000"/><path d="M519.15,283.83a1.86,1.86,0,1,1-1.38,2.24,1.87,1.87,0,0,1,1.38-2.24" transform="translate(-72 -153.97)" fill="#ff4000"/><path d="M516.67,260.62a1.86,1.86,0,1,1-1.84,1.88,1.85,1.85,0,0,1,1.84-1.88" transform="translate(-72 -153.97)" fill="#ff4000"/><path d="M518.61,241a1.85,1.85,0,1,1-2.16,1.49,1.85,1.85,0,0,1,2.16-1.49" transform="translate(-72 -153.97)" fill="#ff4000"/><path d="M525,220a1.86,1.86,0,1,1-2.43,1,1.86,1.86,0,0,1,2.43-1" transform="translate(-72 -153.97)" fill="#ff4000"/><path d="M535.48,201.06a1.86,1.86,0,1,1-2.59.5,1.86,1.86,0,0,1,2.59-.5" transform="translate(-72 -153.97)" fill="#ff4000"/><path d="M549.59,184.63a1.85,1.85,0,1,1-2.62,0,1.84,1.84,0,0,1,2.62,0" transform="translate(-72 -153.97)" fill="#ff4000"/><path d="M565.83,172a1.86,1.86,0,1,1-2.57-.55,1.86,1.86,0,0,1,2.57.55" transform="translate(-72 -153.97)" fill="#ff4000"/><path d="M584.92,162.55a1.85,1.85,0,1,1-2.4-1.06,1.85,1.85,0,0,1,2.4,1.06" transform="translate(-72 -153.97)" fill="#ff4000"/><path d="M602.53,157.62a1.86,1.86,0,1,1-2.19-1.45,1.86,1.86,0,0,1,2.19,1.45" transform="translate(-72 -153.97)" fill="#ff4000"/><path d="M636.08,166.89a2.33,2.33,0,1,1-1.75-2.78,2.33,2.33,0,0,1,1.75,2.78" transform="translate(-72 -153.97)" fill="#ff4000"/><path d="M655.23,171.84a2.32,2.32,0,1,1-1.13-3.09,2.32,2.32,0,0,1,1.13,3.09" transform="translate(-72 -153.97)" fill="#ff4000"/><path d="M670.11,178.9a2.32,2.32,0,1,1-.58-3.23,2.32,2.32,0,0,1,.58,3.23" transform="translate(-72 -153.97)" fill="#ff4000"/><path d="M664.81,346.2a2.32,2.32,0,1,1,3,1.28,2.33,2.33,0,0,1-3-1.28" transform="translate(-72 -153.97)" fill="#ff4000"/><path d="M647.6,352.87a2.32,2.32,0,1,1,2.73,1.83,2.31,2.31,0,0,1-2.73-1.83" transform="translate(-72 -153.97)" fill="#ff4000"/><path d="M627.86,356.2a2.33,2.33,0,1,1,2.29,2.36,2.32,2.32,0,0,1-2.29-2.36" transform="translate(-72 -153.97)" fill="#ff4000"/><path d="M607.06,355.21a2.32,2.32,0,1,1,1.72,2.8,2.32,2.32,0,0,1-1.72-2.8" transform="translate(-72 -153.97)" fill="#ff4000"/><path d="M590.38,351a2.32,2.32,0,1,1,1.19,3.07,2.33,2.33,0,0,1-1.19-3.07" transform="translate(-72 -153.97)" fill="#ff4000"/><path d="M571.59,342a2.32,2.32,0,1,1,.5,3.25,2.33,2.33,0,0,1-.5-3.25" transform="translate(-72 -153.97)" fill="#ff4000"/><path d="M557.1,330.89a2.32,2.32,0,1,1-.13,3.29,2.33,2.33,0,0,1,.13-3.29" transform="translate(-72 -153.97)" fill="#ff4000"/><path d="M546,318.63a2.32,2.32,0,1,1-.7,3.21,2.33,2.33,0,0,1,.7-3.21" transform="translate(-72 -153.97)" fill="#ff4000"/><path d="M537.42,305a2.32,2.32,0,1,1-1.23,3.05,2.32,2.32,0,0,1,1.23-3.05" transform="translate(-72 -153.97)" fill="#ff4000"/><path d="M530.83,288.9a2.32,2.32,0,1,1-1.76,2.77,2.33,2.33,0,0,1,1.76-2.77" transform="translate(-72 -153.97)" fill="#ff4000"/><path d="M527,268.47a2.32,2.32,0,1,1-2.32,2.32,2.32,2.32,0,0,1,2.32-2.32" transform="translate(-72 -153.97)" fill="#ff4000"/><path d="M527.3,250.44a2.32,2.32,0,1,1-2.72,1.84,2.34,2.34,0,0,1,2.72-1.84" transform="translate(-72 -153.97)" fill="#ff4000"/><path d="M531.32,231.8a2.32,2.32,0,1,1-3,1.26,2.31,2.31,0,0,1,3-1.26" transform="translate(-72 -153.97)" fill="#ff4000"/><path d="M539,214.38a2.32,2.32,0,1,1-3.23.64,2.34,2.34,0,0,1,3.23-.64" transform="translate(-72 -153.97)" fill="#ff4000"/><path d="M550.81,197.77a2.32,2.32,0,1,1-3.29-.06,2.33,2.33,0,0,1,3.29.06" transform="translate(-72 -153.97)" fill="#ff4000"/><path d="M564.68,185a2.33,2.33,0,0,1-.71,3.21,2.32,2.32,0,1,1,.71-3.21" transform="translate(-72 -153.97)" fill="#ff4000"/><path d="M579.82,175.67a2.32,2.32,0,1,1-3-1.29,2.3,2.3,0,0,1,3,1.29" transform="translate(-72 -153.97)" fill="#ff4000"/><path d="M597.32,169.09a2.32,2.32,0,1,1-2.71-1.86,2.32,2.32,0,0,1,2.71,1.86" transform="translate(-72 -153.97)" fill="#ff4000"/><path d="M633.23,254.41c-1.05-7.39-5.59-9.95-10.61-9.95-6.07,0-10.24,3.51-11.56,9.95Zm12.88,19.13c-5.88,7.87-13.45,12-23.11,12-12.41,0-24.35-7.87-24.35-25.3,0-15.91,10.23-24.91,23.59-24.91,12.5,0,17.71,7.48,18.66,8.91,3.88,5.49,4.74,13.73,4.83,18.47H610.68c1.33,7.48,6,11.74,13.45,11.74A13.84,13.84,0,0,0,636.45,268Z" transform="translate(-72 -153.97)"/><path d="M665.71,236.79v6.73c1.43-2.47,4.55-8.06,15.16-7.77V247.4c-2.46.1-6.72.19-10.23,2.84-4.83,3.7-4.93,8.53-4.93,16.39v17.53h-11V236.79Z" transform="translate(-72 -153.97)"/><path d="M716.87,253.56a11,11,0,0,0-10.7-8.05c-6.54,0-11.75,5.21-11.75,14.68,0,8.52,4.45,14.78,11.93,14.78,7.2,0,9.95-5.5,11.37-9.29l9.76,5.12a22.39,22.39,0,0,1-21.31,14.78c-13.18,0-23.5-10.14-23.5-25.11,0-14.49,10.42-25.1,23.88-25.1,11.93,0,18,8,20.45,13.45Z" transform="translate(-72 -153.97)"/></g><polygon points="401.14 237.74 401.14 241.74 409.33 241.74 409.33 244.49 401.14 244.49 401.14 249.04 410.7 249.04 410.7 251.91 398 251.91 398 234.9 410.1 234.9 410.1 237.74 401.14 237.74"/><g clip-path="url(#a)"><path d="M495.65,393.82v12.05h-2.89v-1.23a5.33,5.33,0,0,1-3.91,1.52,4,4,0,0,1-3.35-1.39c-.82-1-.82-2.17-.82-4v-7h2.92v6.92a4.81,4.81,0,0,0,.09,1.21,2.13,2.13,0,0,0,2.24,1.51,2.66,2.66,0,0,0,2.34-1.27c.44-.8.46-1.57.49-3.25v-5.12Z" transform="translate(-72 -153.97)"/><path d="M501.57,393.82v1.72c.37-.63,1.16-2.05,3.86-2v3a4.44,4.44,0,0,0-2.6.73c-1.23.94-1.26,2.17-1.26,4.17v4.45h-2.79V393.82Z" transform="translate(-72 -153.97)"/><path d="M512.26,396.07c-1.81,0-3.11,1.45-3.11,3.66,0,2.48,1.52,3.86,3.25,3.86,2.1,0,3.16-1.83,3.09-3.83s-1.21-3.69-3.23-3.69m.14,10.16a6.08,6.08,0,0,1-6.26-6.42,6.2,6.2,0,1,1,12.39,0c0,3.75-2.49,6.42-6.13,6.42" transform="translate(-72 -153.97)"/><path d="M526.7,403.51c1.39,0,2.91-1,2.91-3.68,0-3-2.1-3.59-3-3.59-1.33,0-2.85,1-2.89,3.54s1.32,3.73,2.94,3.73m-5.79-9.69h2.86v1.12a4.26,4.26,0,0,1,3.31-1.47c3.54,0,5.47,3.18,5.47,6.5,0,3.59-2.24,6.26-5.47,6.26a4.74,4.74,0,0,1-3.31-1.34v4.91h-2.86Z" transform="translate(-72 -153.97)"/><path d="M543,398.31a2.57,2.57,0,0,0-2.7-2.53,2.85,2.85,0,0,0-2.94,2.53Zm3.28,4.87a7,7,0,0,1-5.88,3.05c-3.16,0-6.19-2-6.19-6.42,0-4.06,2.59-6.34,6-6.34a5.43,5.43,0,0,1,4.75,2.26,9,9,0,0,1,1.23,4.7h-8.92a3.27,3.27,0,0,0,3.43,3,3.53,3.53,0,0,0,3.13-1.66Z" transform="translate(-72 -153.97)"/><path d="M555.57,399.88a8.46,8.46,0,0,1-2.53.72c-1,.14-2.41.38-2.41,1.66,0,.94.79,1.42,2,1.42a3,3,0,0,0,2.82-1.39,2.47,2.47,0,0,0,.17-1.09Zm-7.45-2.51a4,4,0,0,1,.48-1.81c1.16-2.09,4-2.09,4.8-2.09a7.25,7.25,0,0,1,3.61.77c1.43.87,1.45,2,1.45,3.3v6.38a2.52,2.52,0,0,0,.53,1.95h-3.42c0-.28-.07-.77-.07-.93a5.7,5.7,0,0,1-3.57,1.22c-2.72,0-4.36-1.68-4.36-3.75a3.64,3.64,0,0,1,.38-1.64c.87-1.74,2.73-2.12,3.88-2.34a26,26,0,0,0,3.74-.89c0-.6-.05-1.83-2.05-1.83a2.53,2.53,0,0,0-2.14.77,1.41,1.41,0,0,0-.3,1.06Z" transform="translate(-72 -153.97)"/><path d="M561.52,393.82h2.92v1.43a3.24,3.24,0,0,1,.94-.94,5,5,0,0,1,2.77-.84,4,4,0,0,1,3.16,1.44c.74,1,.74,2.32.74,3.88v7.08h-2.86v-6.14a8.22,8.22,0,0,0-.1-1.83,2,2,0,0,0-2-1.61,2.51,2.51,0,0,0-2.22,1.35,6.88,6.88,0,0,0-.46,3v5.22h-2.92Z" transform="translate(-72 -153.97)"/><path d="M585.19,391.61v5.33h1.11c1.08,0,1.49,0,2.09-.05s3-.15,3-2.63A2.43,2.43,0,0,0,590,392c-.67-.34-1.49-.36-3.37-.36ZM582,388.86h5.42c2.27,0,3.79,0,5.28,1.23a5.19,5.19,0,0,1,1.88,4.2,4.66,4.66,0,0,1-3.35,4.67l3.79,6.91h-3.64L588,399.56h-2.84v6.31H582Z" transform="translate(-72 -153.97)"/><path d="M605.27,398.31a2.59,2.59,0,0,0-2.71-2.53,2.85,2.85,0,0,0-2.94,2.53Zm3.27,4.87a7,7,0,0,1-5.88,3.05c-3.16,0-6.19-2-6.19-6.42,0-4.06,2.6-6.34,6-6.34a5.45,5.45,0,0,1,4.75,2.26,9,9,0,0,1,1.22,4.7h-8.91a3.25,3.25,0,0,0,3.42,3,3.55,3.55,0,0,0,3.14-1.66Z" transform="translate(-72 -153.97)"/><path d="M611.87,402.31a4.21,4.21,0,0,0,3.47,1.54c1.66,0,2.38-.82,2.38-1.42,0-.77-.86-1-1.25-1s-2.38-.45-2.82-.57c-2.87-.68-3.4-2.34-3.4-3.43,0-2,1.86-3.92,5.16-3.92a6.84,6.84,0,0,1,4,1.16,5.38,5.38,0,0,1,1.23,1.08l-2,1.9a3.38,3.38,0,0,0-3.28-1.83c-1.37,0-2,.6-2,1.23,0,.87.9,1.11,2.43,1.37,2.51.46,3.21.58,4,1.18a3.26,3.26,0,0,1,1.23,2.56c0,1.87-1.69,4.11-5.42,4.11a8.25,8.25,0,0,1-5.79-2.14Z" transform="translate(-72 -153.97)"/><path d="M631.37,398.31a2.59,2.59,0,0,0-2.71-2.53,2.85,2.85,0,0,0-2.94,2.53Zm3.27,4.87a7,7,0,0,1-5.88,3.05c-3.16,0-6.19-2-6.19-6.42,0-4.06,2.6-6.34,6-6.34a5.41,5.41,0,0,1,4.74,2.26,9,9,0,0,1,1.24,4.7h-8.92a3.26,3.26,0,0,0,3.42,3,3.54,3.54,0,0,0,3.14-1.66Z" transform="translate(-72 -153.97)"/><path d="M643.92,399.88a8.46,8.46,0,0,1-2.53.72c-1,.14-2.41.38-2.41,1.66,0,.94.8,1.42,1.95,1.42a3,3,0,0,0,2.83-1.39,2.61,2.61,0,0,0,.16-1.09Zm-7.44-2.51a3.78,3.78,0,0,1,.48-1.81c1.16-2.09,4-2.09,4.8-2.09a7.27,7.27,0,0,1,3.61.77c1.42.87,1.44,2,1.44,3.3v6.38a2.49,2.49,0,0,0,.54,1.95h-3.43c0-.28-.07-.77-.07-.93a5.65,5.65,0,0,1-3.56,1.22c-2.73,0-4.37-1.68-4.37-3.75a3.64,3.64,0,0,1,.39-1.64c.86-1.74,2.72-2.12,3.88-2.34a26.05,26.05,0,0,0,3.73-.89c0-.6,0-1.83-2-1.83a2.56,2.56,0,0,0-2.15.77,1.44,1.44,0,0,0-.29,1.06Z" transform="translate(-72 -153.97)"/><path d="M652.69,393.82v1.72c.36-.63,1.16-2.05,3.86-2v3a4.44,4.44,0,0,0-2.6.73c-1.23.94-1.26,2.17-1.26,4.17v4.45H649.9V393.82Z" transform="translate(-72 -153.97)"/><path d="M665.69,398.09a2.81,2.81,0,0,0-2.72-2c-1.66,0-3,1.32-3,3.73,0,2.17,1.13,3.76,3,3.76a3.06,3.06,0,0,0,2.89-2.36l2.48,1.3a5.68,5.68,0,0,1-5.42,3.75c-3.35,0-6-2.57-6-6.38a6.09,6.09,0,0,1,6.08-6.38,5.55,5.55,0,0,1,5.2,3.42Z" transform="translate(-72 -153.97)"/><path d="M672.38,388.86v6.2a5.22,5.22,0,0,1,3.83-1.59,4.35,4.35,0,0,1,3.29,1.3c1,1.06,1,2.29,1,3.66v7.44h-2.85v-6.62a4.74,4.74,0,0,0-.19-1.71,2.05,2.05,0,0,0-2.1-1.33,3.06,3.06,0,0,0-2.91,2.2,8,8,0,0,0-.09,1.93v5.53h-2.9v-17Z" transform="translate(-72 -153.97)"/><path d="M704.76,401.13a8.68,8.68,0,0,1-1.46,2.55,7.52,7.52,0,0,1-5.89,2.63c-4.51,0-7.95-3.3-7.95-9s3.73-8.89,8.07-8.89a6.8,6.8,0,0,1,6.94,5.25l-3.18.85a4.18,4.18,0,0,0-.62-1.69,3.6,3.6,0,0,0-3.06-1.49c-2.77,0-4.71,2.29-4.71,5.92,0,3.89,2.06,6,4.73,6a3.88,3.88,0,0,0,3.25-1.67,5.23,5.23,0,0,0,.89-1.75Z" transform="translate(-72 -153.97)"/><path d="M712.11,396.07c-1.8,0-3.11,1.45-3.11,3.66,0,2.48,1.53,3.86,3.26,3.86,2.1,0,3.15-1.83,3.09-3.83s-1.21-3.69-3.24-3.69m.15,10.16a6.09,6.09,0,0,1-6.27-6.42,6.2,6.2,0,1,1,12.39,0c0,3.75-2.48,6.42-6.12,6.42" transform="translate(-72 -153.97)"/><path d="M731.66,393.82v12.05h-2.89v-1.23a5.33,5.33,0,0,1-3.91,1.52,4,4,0,0,1-3.35-1.39c-.82-1-.82-2.17-.82-4v-7h2.92v6.92a4.34,4.34,0,0,0,.1,1.21,2.12,2.12,0,0,0,2.24,1.51,2.68,2.68,0,0,0,2.34-1.27,6.73,6.73,0,0,0,.48-3.25v-5.12Z" transform="translate(-72 -153.97)"/><path d="M734.77,393.82h2.91v1.43a3.53,3.53,0,0,1,.94-.94,5.05,5.05,0,0,1,2.78-.84,4,4,0,0,1,3.16,1.44c.74,1,.74,2.32.74,3.88v7.08h-2.87v-6.14a8.22,8.22,0,0,0-.1-1.83,2,2,0,0,0-2-1.61,2.53,2.53,0,0,0-2.22,1.35,6.88,6.88,0,0,0-.46,3v5.22h-2.91Z" transform="translate(-72 -153.97)"/><path d="M756.08,398.09a2.81,2.81,0,0,0-2.73-2c-1.66,0-3,1.32-3,3.73,0,2.17,1.14,3.76,3,3.76a3.06,3.06,0,0,0,2.89-2.36l2.48,1.3a5.68,5.68,0,0,1-5.42,3.75c-3.35,0-6-2.57-6-6.38a6.09,6.09,0,0,1,6.07-6.38,5.55,5.55,0,0,1,5.2,3.42Z" transform="translate(-72 -153.97)"/></g><path d="M760.41,393.82h2.87v12.05h-2.87Zm2.87-1.87h-2.87V389h2.87Z" transform="translate(-72 -153.97)"/><rect x="694.44" y="234.89" width="2.92" height="17.01"/><polygon points="398.13 285.68 398.13 273.9 405.43 273.9 405.43 275.03 399.38 275.03 399.38 279.18 404.54 279.18 404.54 280.3 399.38 280.3 399.38 284.55 405.43 284.55 405.43 285.68 398.13 285.68"/><g clip-path="url(#a)"><path d="M482.39,439.74a4.46,4.46,0,0,1-3.34-1.17l.79-.8a3.33,3.33,0,0,0,2.53,1c1.34,0,2.17-.48,2.17-1.44,0-.71-.42-1.11-1.36-1.19l-1.34-.12c-1.58-.13-2.43-.84-2.43-2.18,0-1.49,1.26-2.38,3-2.38a4.58,4.58,0,0,1,2.93.88l-.78.77a3.5,3.5,0,0,0-2.16-.64c-1.19,0-1.82.51-1.82,1.34s.4,1.11,1.42,1.19l1.31.11c1.42.14,2.39.68,2.39,2.2s-1.34,2.48-3.3,2.48" transform="translate(-72 -153.97)"/><path d="M490.14,439.64a2,2,0,0,1-2.09-2.18v-5h-1v-.91h1V429h1.19v2.55H491v.91h-1.74v5c0,.74.35,1.19,1.11,1.19H491v1Z" transform="translate(-72 -153.97)"/><path d="M497.82,435.89h-2.28c-1.23,0-1.82.5-1.82,1.44s.58,1.39,1.87,1.39a2.38,2.38,0,0,0,1.82-.55,1.87,1.87,0,0,0,.41-1.4Zm0,3.75v-.77a2.86,2.86,0,0,1-2.35.87,2.91,2.91,0,0,1-2.3-.74,2.39,2.39,0,0,1-.61-1.66c0-1.42,1-2.34,2.81-2.34h2.45v-.78c0-1.19-.6-1.78-2.08-1.78a2.12,2.12,0,0,0-2.05.92l-.81-.74a3.14,3.14,0,0,1,2.87-1.21c2.18,0,3.26.94,3.26,2.71v5.52Z" transform="translate(-72 -153.97)"/><path d="M505.14,432.47c-1.77,0-2.05,1.52-2.05,3.11s.28,3.1,2.05,3.1,2-1.52,2-3.1-.26-3.11-2-3.11m2.23,6.56a2.84,2.84,0,0,1-2,.71,2.59,2.59,0,0,1-2.29-1.07v1H501.9V427.87h1.19v4.58a2.61,2.61,0,0,1,2.29-1,2.84,2.84,0,0,1,2,.71,6.52,6.52,0,0,1,0,6.91" transform="translate(-72 -153.97)"/><path d="M512.93,439.64a1.93,1.93,0,0,1-2.06-2.16v-9.61h1.19v9.56c0,.79.26,1.19,1.09,1.19h.64v1Z" transform="translate(-72 -153.97)"/></g><path d="M515.81,431.51H517v8.13h-1.19Zm-.07-3.65h1.34v1.34h-1.34Z" transform="translate(-72 -153.97)"/><g clip-path="url(#a)"><path d="M522.55,439.74a4.48,4.48,0,0,1-3.34-1.17l.79-.8a3.33,3.33,0,0,0,2.53,1c1.34,0,2.17-.48,2.17-1.44,0-.71-.41-1.11-1.36-1.19L522,436c-1.58-.13-2.43-.84-2.43-2.18,0-1.49,1.26-2.38,3-2.38a4.57,4.57,0,0,1,2.92.88l-.77.77a3.53,3.53,0,0,0-2.17-.64c-1.19,0-1.82.51-1.82,1.34s.4,1.11,1.42,1.19l1.31.11c1.42.14,2.39.68,2.39,2.2s-1.33,2.48-3.3,2.48" transform="translate(-72 -153.97)"/><path d="M533.39,439.64v-5c0-1.43-.76-2.15-2-2.15a1.92,1.92,0,0,0-2,2.15v5h-1.19V427.87h1.19v4.53a2.9,2.9,0,0,1,2.28-1,2.75,2.75,0,0,1,2.93,3v5.22Z" transform="translate(-72 -153.97)"/><path d="M542.26,433.64a2.09,2.09,0,0,0-3.8,0,3.63,3.63,0,0,0-.25,1.36h4.3a3.44,3.44,0,0,0-.25-1.36m-4,2.25c0,1.79.84,2.81,2.4,2.81a2.65,2.65,0,0,0,2.13-.93l.81.71a3.71,3.71,0,0,1-3,1.26c-2.15,0-3.56-1.29-3.56-4.16,0-2.63,1.27-4.17,3.34-4.17s3.34,1.52,3.34,3.94v.54Z" transform="translate(-72 -153.97)"/><path d="M549,432.47c-1.76,0-2,1.52-2,3.11s.28,3.1,2,3.1,2-1.52,2-3.1-.27-3.11-2-3.11m2.05,7.17v-1a2.62,2.62,0,0,1-2.31,1.07,2.82,2.82,0,0,1-2-.71,6.47,6.47,0,0,1,0-6.91,2.82,2.82,0,0,1,2-.71,2.63,2.63,0,0,1,2.3,1v-4.58h1.19v11.77Z" transform="translate(-72 -153.97)"/><path d="M562.58,432.47c-1.77,0-2.05,1.52-2.05,3.11s.28,3.1,2.05,3.1,2-1.52,2-3.1-.27-3.11-2-3.11m2.23,6.56a2.82,2.82,0,0,1-2,.71,2.61,2.61,0,0,1-2.3-1.07v1h-1.19V427.87h1.19v4.58a2.63,2.63,0,0,1,2.3-1,2.82,2.82,0,0,1,2,.71,6.47,6.47,0,0,1,0,6.91" transform="translate(-72 -153.97)"/><path d="M570.36,441.61a2.35,2.35,0,0,1-.57,1,2.25,2.25,0,0,1-1.59.56h-.51v-1.06h.36c.83,0,1.07-.26,1.34-1l.58-1.58-2.93-8h1.29l2.23,6.53,2.22-6.53h1.29Z" transform="translate(-72 -153.97)"/><path d="M582.13,439.64a2,2,0,0,1-2.09-2.18v-5h-1v-.91h1V429h1.19v2.55H583v.91h-1.74v5c0,.74.35,1.19,1.11,1.19H583v1Z" transform="translate(-72 -153.97)"/><path d="M590.54,439.64v-5a1.88,1.88,0,0,0-2-2.15,1.92,1.92,0,0,0-2,2.15v5h-1.19V427.87h1.19v4.53a2.9,2.9,0,0,1,2.28-1,2.75,2.75,0,0,1,2.93,3v5.22Z" transform="translate(-72 -153.97)"/><path d="M599.41,433.64a2.09,2.09,0,0,0-3.8,0,3.44,3.44,0,0,0-.25,1.36h4.3a3.44,3.44,0,0,0-.25-1.36m-4,2.25c0,1.79.84,2.81,2.4,2.81a2.66,2.66,0,0,0,2.13-.93l.81.71a3.73,3.73,0,0,1-3,1.26c-2.15,0-3.55-1.29-3.55-4.16,0-2.63,1.27-4.17,3.34-4.17s3.34,1.52,3.34,3.94v.54Z" transform="translate(-72 -153.97)"/></g><polygon points="535.7 285.68 535.7 273.9 543.01 273.9 543.01 275.03 536.96 275.03 536.96 279.18 542.12 279.18 542.12 280.3 536.96 280.3 536.96 284.55 543.01 284.55 543.01 285.68 535.7 285.68"/><g clip-path="url(#a)"><path d="M622.54,439.64v-.91a3,3,0,0,1-2.3,1,2.89,2.89,0,0,1-2.1-.76,3,3,0,0,1-.82-2.28v-5.19h1.19v5c0,1.44.76,2.16,2,2.16a1.92,1.92,0,0,0,2-2.16v-5h1.19v8.13Z" transform="translate(-72 -153.97)"/><path d="M631.23,433.06a1.73,1.73,0,0,0-1.41-.59,2,2,0,0,0-2,2.18v5h-1.19v-8.13h1.19v1a2.74,2.74,0,0,1,2.29-1.09,2.51,2.51,0,0,1,2,.76Z" transform="translate(-72 -153.97)"/><path d="M637.46,433.06a2.08,2.08,0,0,0-1.49-.59,2,2,0,0,0-1.47.59,5.12,5.12,0,0,0,0,5,2,2,0,0,0,1.47.59,2.08,2.08,0,0,0,1.49-.59,5.26,5.26,0,0,0,0-5m.84,5.76a3.41,3.41,0,0,1-4.66,0,5.8,5.8,0,0,1,0-6.48,3.38,3.38,0,0,1,4.66,0,5.8,5.8,0,0,1,0,6.48" transform="translate(-72 -153.97)"/><path d="M645.07,432.47c-1.77,0-2.05,1.52-2.05,3.11s.28,3.1,2.05,3.1,2-1.52,2-3.1-.27-3.11-2-3.11M647.3,439a2.82,2.82,0,0,1-2,.71,2.62,2.62,0,0,1-2.3-1.06v4.6h-1.19V431.51H643v1a2.6,2.6,0,0,1,2.3-1.06,2.82,2.82,0,0,1,2,.71,6.47,6.47,0,0,1,0,6.91" transform="translate(-72 -153.97)"/><path d="M655.63,433.64a2.09,2.09,0,0,0-3.8,0,3.27,3.27,0,0,0-.25,1.36h4.3a3.63,3.63,0,0,0-.25-1.36m-4,2.25c0,1.79.84,2.81,2.4,2.81a2.66,2.66,0,0,0,2.13-.93l.81.71a3.73,3.73,0,0,1-3,1.26c-2.14,0-3.55-1.29-3.55-4.16,0-2.63,1.27-4.17,3.34-4.17s3.34,1.52,3.34,3.94v.54Z" transform="translate(-72 -153.97)"/><path d="M664.21,435.89h-2.29c-1.22,0-1.82.5-1.82,1.44s.58,1.39,1.87,1.39a2.36,2.36,0,0,0,1.82-.55,1.87,1.87,0,0,0,.42-1.4Zm0,3.75v-.77a3.77,3.77,0,0,1-4.65.13,2.34,2.34,0,0,1-.61-1.66c0-1.42,1-2.34,2.81-2.34h2.45v-.78c0-1.19-.6-1.78-2.09-1.78a2.13,2.13,0,0,0-2,.92l-.81-.74a3.17,3.17,0,0,1,2.88-1.21c2.18,0,3.25.94,3.25,2.71v5.52Z" transform="translate(-72 -153.97)"/><path d="M673.49,439.64v-5a1.89,1.89,0,0,0-2-2.16,1.91,1.91,0,0,0-2,2.16v5h-1.19v-8.13h1.19v.89a3,3,0,0,1,2.28-1,2.89,2.89,0,0,1,2.09.76,3,3,0,0,1,.84,2.26v5.21Z" transform="translate(-72 -153.97)"/><path d="M685.57,439.74a4.2,4.2,0,0,1-3-1.22c-1.11-1.11-1.11-2.27-1.11-4.76s0-3.66,1.11-4.76a4.17,4.17,0,0,1,3-1.23,4,4,0,0,1,4.08,3.51h-1.29a2.77,2.77,0,0,0-2.79-2.38,2.89,2.89,0,0,0-2,.82c-.74.76-.82,1.58-.82,4s.08,3.27.82,4a2.86,2.86,0,0,0,2,.83,2.8,2.8,0,0,0,2.82-2.38h1.26a4,4,0,0,1-4.08,3.5" transform="translate(-72 -153.97)"/><path d="M696.59,433.06a2.1,2.1,0,0,0-1.49-.59,2,2,0,0,0-1.47.59,5.12,5.12,0,0,0,0,5,2,2,0,0,0,1.47.59,2.1,2.1,0,0,0,1.49-.59,5.26,5.26,0,0,0,0-5m.84,5.76a3.41,3.41,0,0,1-4.66,0,5.8,5.8,0,0,1,0-6.48,3.38,3.38,0,0,1,4.66,0,5.8,5.8,0,0,1,0,6.48" transform="translate(-72 -153.97)"/><path d="M711.41,439.64v-5a2,2,0,1,0-4-.13v5.14h-1.19v-5a1.89,1.89,0,0,0-2-2.16,1.92,1.92,0,0,0-2,2.16v5H701v-8.13h1.19v.89a3,3,0,0,1,2.3-1,2.68,2.68,0,0,1,2.5,1.36,3.08,3.08,0,0,1,2.67-1.36,2.94,2.94,0,0,1,2.1.76,3,3,0,0,1,.88,2.26v5.21Z" transform="translate(-72 -153.97)"/><path d="M725.93,439.64v-5a2,2,0,1,0-4-.13v5.14h-1.19v-5a1.89,1.89,0,0,0-2-2.16,1.93,1.93,0,0,0-2,2.16v5h-1.19v-8.13h1.19v.89a3,3,0,0,1,2.3-1,2.68,2.68,0,0,1,2.5,1.36,3.11,3.11,0,0,1,2.68-1.36,3,3,0,0,1,2.1.76,3,3,0,0,1,.87,2.26v5.21Z" transform="translate(-72 -153.97)"/></g><path d="M730,431.51h1.19v8.13H730Zm-.07-3.65h1.34v1.34h-1.34Z" transform="translate(-72 -153.97)"/><g clip-path="url(#a)"><path d="M736.75,439.74a4.48,4.48,0,0,1-3.34-1.17l.79-.8a3.33,3.33,0,0,0,2.53,1c1.34,0,2.17-.48,2.17-1.44,0-.71-.41-1.11-1.36-1.19L736.2,436c-1.58-.13-2.43-.84-2.43-2.18,0-1.49,1.26-2.38,3-2.38a4.55,4.55,0,0,1,2.92.88l-.78.77a3.48,3.48,0,0,0-2.16-.64c-1.19,0-1.82.51-1.82,1.34s.4,1.11,1.42,1.19l1.31.11c1.42.14,2.4.68,2.4,2.2s-1.34,2.48-3.31,2.48" transform="translate(-72 -153.97)"/><path d="M744.68,439.74a4.48,4.48,0,0,1-3.34-1.17l.79-.8a3.33,3.33,0,0,0,2.53,1c1.34,0,2.17-.48,2.17-1.44,0-.71-.42-1.11-1.36-1.19l-1.34-.12c-1.58-.13-2.43-.84-2.43-2.18,0-1.49,1.26-2.38,3-2.38a4.58,4.58,0,0,1,2.93.88l-.78.77a3.5,3.5,0,0,0-2.16-.64c-1.19,0-1.82.51-1.82,1.34s.4,1.11,1.42,1.19l1.31.11c1.42.14,2.39.68,2.39,2.2s-1.34,2.48-3.3,2.48" transform="translate(-72 -153.97)"/></g><path d="M750.31,431.51h1.19v8.13h-1.19Zm-.07-3.65h1.34v1.34h-1.34Z" transform="translate(-72 -153.97)"/><g clip-path="url(#a)"><path d="M758.87,433.06a2.08,2.08,0,0,0-1.49-.59,2.05,2.05,0,0,0-1.47.59,5.12,5.12,0,0,0,0,5,2.05,2.05,0,0,0,1.47.59,2.08,2.08,0,0,0,1.49-.59,5.19,5.19,0,0,0,0-5m.84,5.76a3.41,3.41,0,0,1-4.66,0,5.8,5.8,0,0,1,0-6.48,3.38,3.38,0,0,1,4.66,0,5.75,5.75,0,0,1,0,6.48" transform="translate(-72 -153.97)"/><path d="M768.45,439.64v-5a1.89,1.89,0,0,0-2-2.16,1.91,1.91,0,0,0-2,2.16v5h-1.2v-8.13h1.2v.89a2.92,2.92,0,0,1,2.28-1,2.88,2.88,0,0,1,2.08.76,3,3,0,0,1,.84,2.26v5.21Z" transform="translate(-72 -153.97)"/></g></svg>